<svg width="256" height="4" viewBox="0 0 256 4" fill="none" xmlns="http://www.w3.org/2000/svg">
<path d="M1.6763 0.492C2.05763 0.492 2.38763 0.631333 2.6663 0.91C2.94496 1.18867 3.0843 1.51867 3.0843 1.9C3.0843 2.28133 2.94496 2.61133 2.6663 2.89C2.38763 3.16867 2.05763 3.308 1.6763 3.308C1.29496 3.308 0.964964 3.16867 0.686297 2.89C0.40763 2.61133 0.268297 2.28133 0.268297 1.9C0.268297 1.51867 0.40763 1.18867 0.686297 0.91C0.964964 0.631333 1.29496 0.492 1.6763 0.492ZM8.31927 0.492C8.7006 0.492 9.0306 0.631333 9.30927 0.91C9.58793 1.18867 9.72727 1.51867 9.72727 1.9C9.72727 2.28133 9.58793 2.61133 9.30927 2.89C9.0306 3.16867 8.7006 3.308 8.31927 3.308C7.93793 3.308 7.60793 3.16867 7.32927 2.89C7.0506 2.61133 6.91127 2.28133 6.91127 1.9C6.91127 1.51867 7.0506 1.18867 7.32927 0.91C7.60793 0.631333 7.93793 0.492 8.31927 0.492ZM14.9622 0.492C15.3436 0.492 15.6736 0.631333 15.9522 0.91C16.2309 1.18867 16.3702 1.51867 16.3702 1.9C16.3702 2.28133 16.2309 2.61133 15.9522 2.89C15.6736 3.16867 15.3436 3.308 14.9622 3.308C14.5809 3.308 14.2509 3.16867 13.9722 2.89C13.6936 2.61133 13.5542 2.28133 13.5542 1.9C13.5542 1.51867 13.6936 1.18867 13.9722 0.91C14.2509 0.631333 14.5809 0.492 14.9622 0.492ZM21.6052 0.492C21.9865 0.492 22.3165 0.631333 22.5952 0.91C22.8739 1.18867 23.0132 1.51867 23.0132 1.9C23.0132 2.28133 22.8739 2.61133 22.5952 2.89C22.3165 3.16867 21.9865 3.308 21.6052 3.308C21.2239 3.308 20.8939 3.16867 20.6152 2.89C20.3365 2.61133 20.1972 2.28133 20.1972 1.9C20.1972 1.51867 20.3365 1.18867 20.6152 0.91C20.8939 0.631333 21.2239 0.492 21.6052 0.492ZM28.2482 0.492C28.6295 0.492 28.9595 0.631333 29.2382 0.91C29.5168 1.18867 29.6562 1.51867 29.6562 1.9C29.6562 2.28133 29.5168 2.61133 29.2382 2.89C28.9595 3.16867 28.6295 3.308 28.2482 3.308C27.8668 3.308 27.5368 3.16867 27.2582 2.89C26.9795 2.61133 26.8402 2.28133 26.8402 1.9C26.8402 1.51867 26.9795 1.18867 27.2582 0.91C27.5368 0.631333 27.8668 0.492 28.2482 0.492ZM34.8911 0.492C35.2725 0.492 35.6025 0.631333 35.8811 0.91C36.1598 1.18867 36.2991 1.51867 36.2991 1.9C36.2991 2.28133 36.1598 2.61133 35.8811 2.89C35.6025 3.16867 35.2725 3.308 34.8911 3.308C34.5098 3.308 34.1798 3.16867 33.9011 2.89C33.6225 2.61133 33.4831 2.28133 33.4831 1.9C33.4831 1.51867 33.6225 1.18867 33.9011 0.91C34.1798 0.631333 34.5098 0.492 34.8911 0.492ZM41.5341 0.492C41.9154 0.492 42.2454 0.631333 42.5241 0.91C42.8028 1.18867 42.9421 1.51867 42.9421 1.9C42.9421 2.28133 42.8028 2.61133 42.5241 2.89C42.2454 3.16867 41.9154 3.308 41.5341 3.308C41.1528 3.308 40.8228 3.16867 40.5441 2.89C40.2654 2.61133 40.1261 2.28133 40.1261 1.9C40.1261 1.51867 40.2654 1.18867 40.5441 0.91C40.8228 0.631333 41.1528 0.492 41.5341 0.492ZM48.1771 0.492C48.5584 0.492 48.8884 0.631333 49.1671 0.91C49.4457 1.18867 49.5851 1.51867 49.5851 1.9C49.5851 2.28133 49.4457 2.61133 49.1671 2.89C48.8884 3.16867 48.5584 3.308 48.1771 3.308C47.7957 3.308 47.4657 3.16867 47.1871 2.89C46.9084 2.61133 46.7691 2.28133 46.7691 1.9C46.7691 1.51867 46.9084 1.18867 47.1871 0.91C47.4657 0.631333 47.7957 0.492 48.1771 0.492ZM54.82 0.492C55.2014 0.492 55.5314 0.631333 55.81 0.91C56.0887 1.18867 56.228 1.51867 56.228 1.9C56.228 2.28133 56.0887 2.61133 55.81 2.89C55.5314 3.16867 55.2014 3.308 54.82 3.308C54.4387 3.308 54.1087 3.16867 53.83 2.89C53.5514 2.61133 53.412 2.28133 53.412 1.9C53.412 1.51867 53.5514 1.18867 53.83 0.91C54.1087 0.631333 54.4387 0.492 54.82 0.492ZM61.463 0.492C61.8444 0.492 62.1744 0.631333 62.453 0.91C62.7317 1.18867 62.871 1.51867 62.871 1.9C62.871 2.28133 62.7317 2.61133 62.453 2.89C62.1744 3.16867 61.8444 3.308 61.463 3.308C61.0817 3.308 60.7517 3.16867 60.473 2.89C60.1944 2.61133 60.055 2.28133 60.055 1.9C60.055 1.51867 60.1944 1.18867 60.473 0.91C60.7517 0.631333 61.0817 0.492 61.463 0.492ZM68.106 0.492C68.4873 0.492 68.8173 0.631333 69.096 0.91C69.3747 1.18867 69.514 1.51867 69.514 1.9C69.514 2.28133 69.3747 2.61133 69.096 2.89C68.8173 3.16867 68.4873 3.308 68.106 3.308C67.7247 3.308 67.3947 3.16867 67.116 2.89C66.8373 2.61133 66.698 2.28133 66.698 1.9C66.698 1.51867 66.8373 1.18867 67.116 0.91C67.3947 0.631333 67.7247 0.492 68.106 0.492ZM74.749 0.492C75.1303 0.492 75.4603 0.631333 75.739 0.91C76.0176 1.18867 76.157 1.51867 76.157 1.9C76.157 2.28133 76.0176 2.61133 75.739 2.89C75.4603 3.16867 75.1303 3.308 74.749 3.308C74.3676 3.308 74.0376 3.16867 73.759 2.89C73.4803 2.61133 73.341 2.28133 73.341 1.9C73.341 1.51867 73.4803 1.18867 73.759 0.91C74.0376 0.631333 74.3676 0.492 74.749 0.492ZM81.3919 0.492C81.7733 0.492 82.1033 0.631333 82.3819 0.91C82.6606 1.18867 82.7999 1.51867 82.7999 1.9C82.7999 2.28133 82.6606 2.61133 82.3819 2.89C82.1033 3.16867 81.7733 3.308 81.3919 3.308C81.0106 3.308 80.6806 3.16867 80.4019 2.89C80.1233 2.61133 79.9839 2.28133 79.9839 1.9C79.9839 1.51867 80.1233 1.18867 80.4019 0.91C80.6806 0.631333 81.0106 0.492 81.3919 0.492ZM88.0349 0.492C88.4162 0.492 88.7462 0.631333 89.0249 0.91C89.3036 1.18867 89.4429 1.51867 89.4429 1.9C89.4429 2.28133 89.3036 2.61133 89.0249 2.89C88.7462 3.16867 88.4162 3.308 88.0349 3.308C87.6536 3.308 87.3236 3.16867 87.0449 2.89C86.7662 2.61133 86.6269 2.28133 86.6269 1.9C86.6269 1.51867 86.7662 1.18867 87.0449 0.91C87.3236 0.631333 87.6536 0.492 88.0349 0.492ZM94.6779 0.492C95.0592 0.492 95.3892 0.631333 95.6679 0.91C95.9465 1.18867 96.0859 1.51867 96.0859 1.9C96.0859 2.28133 95.9465 2.61133 95.6679 2.89C95.3892 3.16867 95.0592 3.308 94.6779 3.308C94.2965 3.308 93.9665 3.16867 93.6879 2.89C93.4092 2.61133 93.2699 2.28133 93.2699 1.9C93.2699 1.51867 93.4092 1.18867 93.6879 0.91C93.9665 0.631333 94.2965 0.492 94.6779 0.492ZM101.321 0.492C101.702 0.492 102.032 0.631333 102.311 0.91C102.589 1.18867 102.729 1.51867 102.729 1.9C102.729 2.28133 102.589 2.61133 102.311 2.89C102.032 3.16867 101.702 3.308 101.321 3.308C100.939 3.308 100.609 3.16867 100.331 2.89C100.052 2.61133 99.9128 2.28133 99.9128 1.9C99.9128 1.51867 100.052 1.18867 100.331 0.91C100.609 0.631333 100.939 0.492 101.321 0.492ZM107.964 0.492C108.345 0.492 108.675 0.631333 108.954 0.91C109.232 1.18867 109.372 1.51867 109.372 1.9C109.372 2.28133 109.232 2.61133 108.954 2.89C108.675 3.16867 108.345 3.308 107.964 3.308C107.582 3.308 107.252 3.16867 106.974 2.89C106.695 2.61133 106.556 2.28133 106.556 1.9C106.556 1.51867 106.695 1.18867 106.974 0.91C107.252 0.631333 107.582 0.492 107.964 0.492ZM114.607 0.492C114.988 0.492 115.318 0.631333 115.597 0.91C115.875 1.18867 116.015 1.51867 116.015 1.9C116.015 2.28133 115.875 2.61133 115.597 2.89C115.318 3.16867 114.988 3.308 114.607 3.308C114.225 3.308 113.895 3.16867 113.617 2.89C113.338 2.61133 113.199 2.28133 113.199 1.9C113.199 1.51867 113.338 1.18867 113.617 0.91C113.895 0.631333 114.225 0.492 114.607 0.492ZM121.25 0.492C121.631 0.492 121.961 0.631333 122.24 0.91C122.518 1.18867 122.658 1.51867 122.658 1.9C122.658 2.28133 122.518 2.61133 122.24 2.89C121.961 3.16867 121.631 3.308 121.25 3.308C120.868 3.308 120.538 3.16867 120.26 2.89C119.981 2.61133 119.842 2.28133 119.842 1.9C119.842 1.51867 119.981 1.18867 120.26 0.91C120.538 0.631333 120.868 0.492 121.25 0.492ZM127.893 0.492C128.274 0.492 128.604 0.631333 128.883 0.91C129.161 1.18867 129.301 1.51867 129.301 1.9C129.301 2.28133 129.161 2.61133 128.883 2.89C128.604 3.16867 128.274 3.308 127.893 3.308C127.511 3.308 127.181 3.16867 126.903 2.89C126.624 2.61133 126.485 2.28133 126.485 1.9C126.485 1.51867 126.624 1.18867 126.903 0.91C127.181 0.631333 127.511 0.492 127.893 0.492ZM134.536 0.492C134.917 0.492 135.247 0.631333 135.526 0.91C135.804 1.18867 135.944 1.51867 135.944 1.9C135.944 2.28133 135.804 2.61133 135.526 2.89C135.247 3.16867 134.917 3.308 134.536 3.308C134.154 3.308 133.824 3.16867 133.546 2.89C133.267 2.61133 133.128 2.28133 133.128 1.9C133.128 1.51867 133.267 1.18867 133.546 0.91C133.824 0.631333 134.154 0.492 134.536 0.492ZM141.179 0.492C141.56 0.492 141.89 0.631333 142.169 0.91C142.447 1.18867 142.587 1.51867 142.587 1.9C142.587 2.28133 142.447 2.61133 142.169 2.89C141.89 3.16867 141.56 3.308 141.179 3.308C140.797 3.308 140.467 3.16867 140.189 2.89C139.91 2.61133 139.771 2.28133 139.771 1.9C139.771 1.51867 139.91 1.18867 140.189 0.91C140.467 0.631333 140.797 0.492 141.179 0.492ZM147.822 0.492C148.203 0.492 148.533 0.631333 148.812 0.91C149.09 1.18867 149.23 1.51867 149.23 1.9C149.23 2.28133 149.09 2.61133 148.812 2.89C148.533 3.16867 148.203 3.308 147.822 3.308C147.44 3.308 147.11 3.16867 146.832 2.89C146.553 2.61133 146.414 2.28133 146.414 1.9C146.414 1.51867 146.553 1.18867 146.832 0.91C147.11 0.631333 147.44 0.492 147.822 0.492ZM154.465 0.492C154.846 0.492 155.176 0.631333 155.455 0.91C155.733 1.18867 155.873 1.51867 155.873 1.9C155.873 2.28133 155.733 2.61133 155.455 2.89C155.176 3.16867 154.846 3.308 154.465 3.308C154.083 3.308 153.753 3.16867 153.475 2.89C153.196 2.61133 153.057 2.28133 153.057 1.9C153.057 1.51867 153.196 1.18867 153.475 0.91C153.753 0.631333 154.083 0.492 154.465 0.492ZM161.108 0.492C161.489 0.492 161.819 0.631333 162.098 0.91C162.376 1.18867 162.516 1.51867 162.516 1.9C162.516 2.28133 162.376 2.61133 162.098 2.89C161.819 3.16867 161.489 3.308 161.108 3.308C160.726 3.308 160.396 3.16867 160.118 2.89C159.839 2.61133 159.7 2.28133 159.7 1.9C159.7 1.51867 159.839 1.18867 160.118 0.91C160.396 0.631333 160.726 0.492 161.108 0.492ZM167.751 0.492C168.132 0.492 168.462 0.631333 168.741 0.91C169.019 1.18867 169.159 1.51867 169.159 1.9C169.159 2.28133 169.019 2.61133 168.741 2.89C168.462 3.16867 168.132 3.308 167.751 3.308C167.369 3.308 167.039 3.16867 166.761 2.89C166.482 2.61133 166.343 2.28133 166.343 1.9C166.343 1.51867 166.482 1.18867 166.761 0.91C167.039 0.631333 167.369 0.492 167.751 0.492ZM174.393 0.492C174.775 0.492 175.105 0.631333 175.383 0.91C175.662 1.18867 175.801 1.51867 175.801 1.9C175.801 2.28133 175.662 2.61133 175.383 2.89C175.105 3.16867 174.775 3.308 174.393 3.308C174.012 3.308 173.682 3.16867 173.403 2.89C173.125 2.61133 172.985 2.28133 172.985 1.9C172.985 1.51867 173.125 1.18867 173.403 0.91C173.682 0.631333 174.012 0.492 174.393 0.492ZM181.036 0.492C181.418 0.492 181.748 0.631333 182.026 0.91C182.305 1.18867 182.444 1.51867 182.444 1.9C182.444 2.28133 182.305 2.61133 182.026 2.89C181.748 3.16867 181.418 3.308 181.036 3.308C180.655 3.308 180.325 3.16867 180.046 2.89C179.768 2.61133 179.628 2.28133 179.628 1.9C179.628 1.51867 179.768 1.18867 180.046 0.91C180.325 0.631333 180.655 0.492 181.036 0.492ZM187.679 0.492C188.061 0.492 188.391 0.631333 188.669 0.91C188.948 1.18867 189.087 1.51867 189.087 1.9C189.087 2.28133 188.948 2.61133 188.669 2.89C188.391 3.16867 188.061 3.308 187.679 3.308C187.298 3.308 186.968 3.16867 186.689 2.89C186.411 2.61133 186.271 2.28133 186.271 1.9C186.271 1.51867 186.411 1.18867 186.689 0.91C186.968 0.631333 187.298 0.492 187.679 0.492ZM194.322 0.492C194.704 0.492 195.034 0.631333 195.312 0.91C195.591 1.18867 195.73 1.51867 195.73 1.9C195.73 2.28133 195.591 2.61133 195.312 2.89C195.034 3.16867 194.704 3.308 194.322 3.308C193.941 3.308 193.611 3.16867 193.332 2.89C193.054 2.61133 192.914 2.28133 192.914 1.9C192.914 1.51867 193.054 1.18867 193.332 0.91C193.611 0.631333 193.941 0.492 194.322 0.492ZM200.965 0.492C201.347 0.492 201.677 0.631333 201.955 0.91C202.234 1.18867 202.373 1.51867 202.373 1.9C202.373 2.28133 202.234 2.61133 201.955 2.89C201.677 3.16867 201.347 3.308 200.965 3.308C200.584 3.308 200.254 3.16867 199.975 2.89C199.697 2.61133 199.557 2.28133 199.557 1.9C199.557 1.51867 199.697 1.18867 199.975 0.91C200.254 0.631333 200.584 0.492 200.965 0.492ZM207.608 0.492C207.99 0.492 208.32 0.631333 208.598 0.91C208.877 1.18867 209.016 1.51867 209.016 1.9C209.016 2.28133 208.877 2.61133 208.598 2.89C208.32 3.16867 207.99 3.308 207.608 3.308C207.227 3.308 206.897 3.16867 206.618 2.89C206.34 2.61133 206.2 2.28133 206.2 1.9C206.2 1.51867 206.34 1.18867 206.618 0.91C206.897 0.631333 207.227 0.492 207.608 0.492ZM214.251 0.492C214.633 0.492 214.963 0.631333 215.241 0.91C215.52 1.18867 215.659 1.51867 215.659 1.9C215.659 2.28133 215.52 2.61133 215.241 2.89C214.963 3.16867 214.633 3.308 214.251 3.308C213.87 3.308 213.54 3.16867 213.261 2.89C212.983 2.61133 212.843 2.28133 212.843 1.9C212.843 1.51867 212.983 1.18867 213.261 0.91C213.54 0.631333 213.87 0.492 214.251 0.492ZM220.894 0.492C221.276 0.492 221.606 0.631333 221.884 0.91C222.163 1.18867 222.302 1.51867 222.302 1.9C222.302 2.28133 222.163 2.61133 221.884 2.89C221.606 3.16867 221.276 3.308 220.894 3.308C220.513 3.308 220.183 3.16867 219.904 2.89C219.626 2.61133 219.486 2.28133 219.486 1.9C219.486 1.51867 219.626 1.18867 219.904 0.91C220.183 0.631333 220.513 0.492 220.894 0.492ZM227.537 0.492C227.919 0.492 228.249 0.631333 228.527 0.91C228.806 1.18867 228.945 1.51867 228.945 1.9C228.945 2.28133 228.806 2.61133 228.527 2.89C228.249 3.16867 227.919 3.308 227.537 3.308C227.156 3.308 226.826 3.16867 226.547 2.89C226.269 2.61133 226.129 2.28133 226.129 1.9C226.129 1.51867 226.269 1.18867 226.547 0.91C226.826 0.631333 227.156 0.492 227.537 0.492ZM234.18 0.492C234.562 0.492 234.892 0.631333 235.17 0.91C235.449 1.18867 235.588 1.51867 235.588 1.9C235.588 2.28133 235.449 2.61133 235.17 2.89C234.892 3.16867 234.562 3.308 234.18 3.308C233.799 3.308 233.469 3.16867 233.19 2.89C232.912 2.61133 232.772 2.28133 232.772 1.9C232.772 1.51867 232.912 1.18867 233.19 0.91C233.469 0.631333 233.799 0.492 234.18 0.492ZM240.823 0.492C241.205 0.492 241.535 0.631333 241.813 0.91C242.092 1.18867 242.231 1.51867 242.231 1.9C242.231 2.28133 242.092 2.61133 241.813 2.89C241.535 3.16867 241.205 3.308 240.823 3.308C240.442 3.308 240.112 3.16867 239.833 2.89C239.555 2.61133 239.415 2.28133 239.415 1.9C239.415 1.51867 239.555 1.18867 239.833 0.91C240.112 0.631333 240.442 0.492 240.823 0.492ZM247.466 0.492C247.847 0.492 248.177 0.631333 248.456 0.91C248.735 1.18867 248.874 1.51867 248.874 1.9C248.874 2.28133 248.735 2.61133 248.456 2.89C248.177 3.16867 247.847 3.308 247.466 3.308C247.085 3.308 246.755 3.16867 246.476 2.89C246.197 2.61133 246.058 2.28133 246.058 1.9C246.058 1.51867 246.197 1.18867 246.476 0.91C246.755 0.631333 247.085 0.492 247.466 0.492ZM254.109 0.492C254.49 0.492 254.82 0.631333 255.099 0.91C255.378 1.18867 255.517 1.51867 255.517 1.9C255.517 2.28133 255.378 2.61133 255.099 2.89C254.82 3.16867 254.49 3.308 254.109 3.308C253.728 3.308 253.398 3.16867 253.119 2.89C252.84 2.61133 252.701 2.28133 252.701 1.9C252.701 1.51867 252.84 1.18867 253.119 0.91C253.398 0.631333 253.728 0.492 254.109 0.492Z" fill="#141414"/>
</svg>
